<?xml version="1.0"?>
<svg width="24" height="24" xmlns="http://www.w3.org/2000/svg">
 <g>
  <title>Layer 1</title>
  <path fill="#ffffff" id="svg_1" d="m16.5,6v11.5c0,2.209999 -1.79,4 -4,4s-4,-1.790001 -4,-4v-12.5c0,-1.38 1.12,-2.5 2.5,-2.5s2.5,1.12 2.5,2.5v10.5c0,0.549999 -0.45,1 -1,1s-1,-0.450001 -1,-1v-9.5h-1.5v9.5c0,1.379999 1.12,2.5 2.5,2.5s2.5,-1.120001 2.5,-2.5v-10.5c0,-2.21 -1.79,-4 -4,-4s-4,1.79 -4,4v12.5c0,3.040001 2.46,5.5 5.5,5.5s5.5,-2.459999 5.5,-5.5v-11.5h-1.5l0,0z"/>
 </g>
</svg>